<?xml version="1.0" encoding="UTF-8" standalone="no"?>
<svg xmlns:xlink="http://www.w3.org/1999/xlink" height="92.3px" width="105.2px" xmlns="http://www.w3.org/2000/svg">
  <g transform="matrix(1.0, 0.0, 0.0, 1.0, 73.7, 75.65)">
    <path d="M1.25 -56.65 Q2.25 -57.55 3.4 -58.05 -0.55 -46.8 8.15 -36.75 L8.35 -36.45 8.3 -36.15 8.9 -34.1 9.25 -33.3 8.6 -33.3 8.15 -36.75 6.8 -38.35 Q1.25 -44.6 -5.3 -43.8 -11.8 -43.0 -15.45 -35.6 -16.85 -32.6 -17.45 -29.2 L-18.7 -29.1 -19.5 -28.85 -19.5 -29.1 -19.4 -29.1 -19.0 -58.2 Q-17.75 -58.0 -16.55 -57.2 L-16.25 -58.45 -16.05 -60.25 Q-16.85 -67.7 -16.45 -71.15 -16.0 -74.5 -10.15 -74.85 -4.25 -75.15 -2.65 -69.55 -1.7 -66.1 -0.85 -61.5 L-0.4 -60.1 -0.05 -58.8 Q0.2 -57.95 0.4 -57.65 L1.6 -57.15 0.75 -56.3 1.4 -56.25 1.25 -56.65 M-16.5 -56.1 L-16.55 -57.2 -16.5 -56.1 M-14.55 -8.15 L-14.35 -7.75 Q-12.8 -4.6 -10.5 -2.05 -4.8 4.3 1.7 3.5 6.5 2.9 9.7 -1.25 L10.4 -2.3 Q22.95 0.35 27.45 -6.3 L27.5 -6.45 29.0 -6.65 Q30.5 3.85 30.2 11.95 L19.4 13.5 Q-2.85 16.15 -21.35 13.5 L-21.7 13.45 Q-20.55 4.6 -20.15 -4.05 L-19.85 -8.05 -19.4 -6.8 -18.65 -6.05 -17.35 -5.6 -16.65 -5.55 Q-15.95 -5.55 -15.4 -6.05 L-15.0 -6.5 Q-14.55 -7.15 -14.55 -8.15 M-44.0 -29.65 L-43.65 -29.45 -44.0 -29.45 -44.0 -29.65 M-4.95 -21.9 L-4.95 -22.1" fill="#336699" fill-rule="evenodd" stroke="none"/>
    <path d="M3.4 -58.05 Q16.3 -68.55 23.4 -51.65 27.1 -41.8 28.65 -33.3 L28.75 -33.3 Q31.0 -20.5 28.45 -10.6 L28.45 -10.3 Q28.15 -8.3 27.5 -6.45 L27.45 -6.3 Q22.95 0.35 10.4 -2.3 L9.7 -1.25 Q6.5 2.9 1.7 3.5 -4.8 4.3 -10.5 -2.05 -12.8 -4.6 -14.35 -7.75 L-14.55 -8.15 -14.9 -8.85 -15.4 -10.55 Q-15.4 -11.65 -14.9 -11.85 L-14.05 -11.85 -12.8 -11.5 Q-12.3 -9.4 -9.95 -8.2 -7.6 -7.05 -4.95 -7.05 L-3.9 -7.15 Q4.2 -3.6 10.4 -2.3 4.2 -3.6 -3.9 -7.15 L-4.6 -7.4 Q-2.65 -14.45 -4.95 -21.9 L-10.25 -26.85 Q-13.65 -29.2 -17.45 -29.2 -16.85 -32.6 -15.45 -35.6 -11.8 -43.0 -5.3 -43.8 1.25 -44.6 6.8 -38.35 L8.15 -36.75 8.6 -33.3 9.25 -33.3 8.9 -34.1 8.3 -36.15 8.35 -36.45 8.15 -36.75 Q-0.55 -46.8 3.4 -58.05 M8.6 -33.3 L10.3 -21.15 15.25 -20.75 10.3 -21.15 8.6 -33.3 M-19.85 -8.05 L-20.15 -4.05 Q-22.2 -2.65 -24.5 -2.95 -35.2 -4.95 -43.65 -12.7 L-43.65 -12.4 -46.8 -15.15 -47.55 -15.85 Q-43.3 -21.45 -44.0 -29.45 L-43.65 -29.45 Q-37.6 -26.35 -33.2 -23.2 L-31.05 -21.6 Q-32.85 -40.7 -30.1 -50.9 -26.15 -61.25 -19.0 -58.2 L-19.4 -29.1 -19.5 -29.1 -19.5 -28.85 Q-21.05 -28.65 -22.5 -27.85 L-24.9 -26.05 -25.7 -25.2 Q-28.95 -21.5 -28.95 -17.9 -28.95 -15.85 -28.3 -15.25 -27.8 -14.75 -25.35 -14.1 -25.05 -10.55 -21.85 -10.55 -20.75 -10.55 -20.1 -10.95 L-20.15 -10.05 -19.95 -9.25 -19.85 -8.05 M-4.95 -22.1 L10.3 -21.15 -4.95 -22.1 -4.95 -21.9 M-43.65 -12.7 L-46.8 -15.15 -43.65 -12.7" fill="#ffe1c4" fill-rule="evenodd" stroke="none"/>
    <path d="M-14.9 -8.85 L-14.55 -8.15 Q-14.55 -7.15 -15.0 -6.5 -14.65 -7.15 -14.65 -8.05 L-14.9 -8.85" fill="#e5e5e5" fill-rule="evenodd" stroke="none"/>
    <path d="M-15.0 -6.5 L-15.4 -6.05 Q-15.95 -5.55 -16.65 -5.55 L-17.35 -5.6 -18.65 -6.05 -19.4 -6.8 -19.85 -8.05 -19.95 -9.25 -20.15 -10.05 -20.1 -10.95 Q-20.75 -10.55 -21.85 -10.55 -25.05 -10.55 -25.35 -14.1 -27.8 -14.75 -28.3 -15.25 -28.95 -15.85 -28.95 -17.9 -28.95 -21.5 -25.7 -25.2 L-24.9 -26.05 -22.5 -27.85 Q-21.05 -28.65 -19.5 -28.85 L-18.7 -29.1 -17.45 -29.2 Q-13.65 -29.2 -10.25 -26.85 L-4.95 -21.9 Q-2.65 -14.45 -4.6 -7.4 L-3.9 -7.15 -4.95 -7.05 Q-7.6 -7.05 -9.95 -8.2 -12.3 -9.4 -12.8 -11.5 L-14.05 -11.85 -14.9 -11.85 Q-15.4 -11.65 -15.4 -10.55 L-14.9 -8.85 -14.65 -8.05 Q-14.65 -7.15 -15.0 -6.5 M-44.0 -29.45 Q-43.3 -21.45 -47.55 -15.85 L-47.9 -16.15 -50.7 -15.7 Q-60.55 -15.7 -60.45 -24.95 -61.3 -25.75 -62.45 -25.95 L-65.45 -23.45 Q-68.25 -20.95 -69.4 -20.95 -70.3 -20.95 -71.15 -21.7 -73.2 -23.35 -71.1 -26.9 L-71.4 -27.95 -70.15 -31.15 -70.4 -31.8 Q-70.4 -34.45 -66.9 -36.45 -60.3 -40.25 -52.15 -35.55 -49.25 -33.85 -44.25 -29.7 L-44.05 -29.6 -44.0 -29.65 -44.0 -29.45 M-14.9 -17.9 L-17.55 -16.95 Q-19.8 -15.45 -19.8 -12.6 L-20.1 -10.95 -19.8 -12.6 Q-19.8 -15.45 -17.55 -16.95 L-14.9 -17.9 M-19.55 -22.15 L-22.25 -21.75 Q-25.45 -20.6 -25.45 -15.35 L-25.35 -14.1 -25.45 -15.35 Q-25.45 -20.6 -22.25 -21.75 L-19.55 -22.15 M-59.55 -28.0 L-60.7 -28.7 -62.35 -29.2 -65.65 -27.7 Q-68.75 -26.2 -69.15 -26.2 -70.55 -26.2 -71.1 -26.9 -70.55 -26.2 -69.15 -26.2 -68.75 -26.2 -65.65 -27.7 L-62.35 -29.2 -60.7 -28.7 -59.55 -28.0 M-50.45 -22.45 Q-53.15 -21.65 -54.9 -23.65 -56.3 -25.25 -56.7 -27.95 -56.9 -29.05 -59.85 -30.25 -61.75 -31.0 -62.35 -32.0 L-62.7 -33.05 -62.45 -34.2 Q-62.15 -34.95 -61.6 -34.95 -60.65 -34.95 -56.4 -32.95 -52.15 -30.95 -50.45 -29.7 -52.15 -30.95 -56.4 -32.95 -60.65 -34.95 -61.6 -34.95 -62.15 -34.95 -62.45 -34.2 L-62.7 -33.05 -62.35 -32.0 Q-66.05 -30.45 -68.15 -30.45 L-69.4 -30.7 -70.15 -31.15 -69.4 -30.7 -68.15 -30.45 Q-66.05 -30.45 -62.35 -32.0 -61.75 -31.0 -59.85 -30.25 -56.9 -29.05 -56.7 -27.95 -56.3 -25.25 -54.9 -23.65 -53.15 -21.65 -50.45 -22.45" fill="#ffffff" fill-rule="evenodd" stroke="none"/>
    <path d="M28.65 -33.3 Q27.1 -41.8 23.4 -51.65 16.3 -68.55 3.4 -58.05 2.25 -57.55 1.25 -56.65 M1.4 -56.25 L0.75 -56.3 1.6 -57.15 0.4 -57.65 Q0.2 -57.95 -0.05 -58.8 L-0.4 -60.1 -0.85 -61.5 Q-1.7 -66.1 -2.65 -69.55 -4.25 -75.15 -10.15 -74.85 -16.0 -74.5 -16.45 -71.15 -16.85 -67.7 -16.05 -60.25 L-16.25 -58.45 -16.55 -57.2 -16.5 -56.1 M15.25 -20.75 L10.3 -21.15 8.6 -33.3 8.15 -36.75 Q-0.55 -46.8 3.4 -58.05 L3.25 -58.65 M-14.55 -8.15 Q-14.55 -7.15 -15.0 -6.5 L-15.4 -6.05 Q-15.95 -5.55 -16.65 -5.55 L-17.35 -5.6 -18.65 -6.05 -19.4 -6.8 -19.85 -8.05 -20.15 -4.05 Q-20.55 4.6 -21.7 13.45 L-21.35 13.5 Q-2.85 16.15 19.4 13.5 L30.2 11.95 Q30.5 3.85 29.0 -6.65 L28.45 -10.3 Q28.15 -8.3 27.5 -6.45 L27.45 -6.3 Q22.95 0.35 10.4 -2.3 4.2 -3.6 -3.9 -7.15 L-4.95 -7.05 Q-7.6 -7.05 -9.95 -8.2 -12.3 -9.4 -12.8 -11.5 L-14.05 -11.85 -14.9 -11.85 Q-15.4 -11.65 -15.4 -10.55 L-14.9 -8.85 -14.65 -8.05 Q-14.65 -7.15 -15.0 -6.5 M28.75 -33.3 Q31.0 -20.5 28.45 -10.6 L28.45 -10.3 M-16.55 -57.2 Q-17.75 -58.0 -19.0 -58.2 -26.15 -61.25 -30.1 -50.9 -32.85 -40.7 -31.05 -21.6 L-33.2 -23.2 Q-37.6 -26.35 -43.65 -29.45 L-44.0 -29.65 M-46.8 -15.15 L-43.65 -12.4 M-19.5 -29.1 L-19.5 -28.85 Q-21.05 -28.65 -22.5 -27.85 L-24.9 -26.05 -25.7 -25.2 Q-28.95 -21.5 -28.95 -17.9 -28.95 -15.85 -28.3 -15.25 -27.8 -14.75 -25.35 -14.1 L-25.45 -15.35 Q-25.45 -20.6 -22.25 -21.75 L-19.55 -22.15 M-19.4 -29.1 L-19.0 -58.2 -19.0 -58.45 M-19.85 -8.05 L-19.95 -9.25 -20.15 -10.05 -20.1 -10.95 Q-20.75 -10.55 -21.85 -10.55 -25.05 -10.55 -25.35 -14.1 M10.3 -21.15 L-4.95 -22.1 M-20.1 -10.95 L-19.8 -12.6 Q-19.8 -15.45 -17.55 -16.95 L-14.9 -17.9 M-4.6 -7.4 L-3.9 -7.15 M-4.95 -21.9 L-10.25 -26.85 Q-13.65 -29.2 -17.45 -29.2 L-18.7 -29.1 -19.5 -28.85 M-50.45 -29.7 Q-52.15 -30.95 -56.4 -32.95 -60.65 -34.95 -61.6 -34.95 -62.15 -34.95 -62.45 -34.2 L-62.7 -33.05 -62.35 -32.0 Q-66.05 -30.45 -68.15 -30.45 L-69.4 -30.7 -70.15 -31.15 -71.4 -27.95 -71.1 -26.9 Q-73.2 -23.35 -71.15 -21.7 -70.3 -20.95 -69.4 -20.95 -68.25 -20.95 -65.45 -23.45 L-62.45 -25.95 Q-61.3 -25.75 -60.45 -24.95 -60.55 -15.7 -50.7 -15.7 L-47.9 -16.15 -47.55 -15.85 -46.8 -15.15 -43.65 -12.7 Q-35.2 -4.95 -24.5 -2.95 -22.2 -2.65 -20.15 -4.05 M-62.35 -32.0 Q-61.75 -31.0 -59.85 -30.25 -56.9 -29.05 -56.7 -27.95 -56.3 -25.25 -54.9 -23.65 -53.15 -21.65 -50.45 -22.45 M-71.1 -26.9 Q-70.55 -26.2 -69.15 -26.2 -68.75 -26.2 -65.65 -27.7 L-62.35 -29.2 -60.7 -28.7 -59.55 -28.0 M-44.05 -29.6 L-44.25 -29.7 Q-49.25 -33.85 -52.15 -35.55 -60.3 -40.25 -66.9 -36.45 -70.4 -34.45 -70.4 -31.8 L-70.15 -31.15" fill="none" stroke="#000000" stroke-linecap="round" stroke-linejoin="round" stroke-width="1.0"/>
    <path d="M-17.45 -29.2 Q-16.85 -32.6 -15.45 -35.6 -11.8 -43.0 -5.3 -43.8 1.25 -44.6 6.8 -38.35 L8.15 -36.75 M10.4 -2.3 L9.7 -1.25 Q6.5 2.9 1.7 3.5 -4.8 4.3 -10.5 -2.05 -12.8 -4.6 -14.35 -7.75 L-14.55 -8.15 -14.9 -8.85" fill="none" stroke="#336699" stroke-linecap="round" stroke-linejoin="round" stroke-width="1.0"/>
    <path d="M7.9 -38.35 L9.0 -30.35 M11.75 -2.05 L9.15 -2.55 M-18.7 -29.1 L-15.6 -29.05 M-15.25 -10.1 Q-14.3 -6.95 -15.0 -6.5" fill="none" stroke="#000000" stroke-linecap="round" stroke-linejoin="round" stroke-width="1.0"/>
  </g>
</svg>
