<?xml version="1.0" encoding="UTF-8" standalone="no"?>
<svg xmlns:xlink="http://www.w3.org/1999/xlink" height="92.9px" width="109.15px" xmlns="http://www.w3.org/2000/svg">
  <g transform="matrix(1.0, 0.0, 0.0, 1.0, 72.95, 73.15)">
    <path d="M1.45 -54.45 L0.85 -53.85 1.6 -53.8 1.45 -54.45 1.7 -54.75 1.45 -54.45 M-16.45 -54.45 L-16.1 -55.5 -16.0 -57.6 Q-17.0 -65.1 -16.65 -68.55 -16.3 -71.9 -10.4 -72.3 -4.55 -72.65 -2.8 -67.05 -1.8 -63.65 -0.85 -59.05 L-0.4 -58.0 0.0 -56.95 Q0.55 -55.85 0.5 -55.25 L1.7 -54.75 Q2.65 -56.3 4.0 -57.25 3.65 -47.1 9.25 -39.2 L9.5 -38.55 10.9 -33.7 11.25 -32.15 Q9.85 -35.05 7.9 -37.6 2.5 -44.55 -4.25 -44.55 -11.0 -44.55 -15.15 -37.6 L-17.1 -33.15 -17.4 -33.15 Q-18.7 -33.0 -19.85 -32.35 L-19.5 -55.95 Q-17.95 -55.6 -16.45 -54.45 L-16.4 -53.55 -16.45 -54.45 M28.75 -11.25 L29.4 -7.25 Q31.15 4.2 30.5 12.55 3.1 19.25 -19.55 13.4 -18.2 4.5 -18.5 -7.25 L-18.8 -14.2 -18.85 -15.0 -18.4 -15.1 -18.45 -14.25 Q-18.4 -12.05 -17.6 -11.0 L-16.85 -10.25 -15.75 -9.9 Q-14.3 -6.5 -12.05 -3.55 -6.55 3.55 0.15 3.55 6.9 3.55 10.95 -3.55 12.3 -5.8 13.1 -8.4 24.4 -6.8 28.75 -11.25 M-44.05 -34.15 L-44.0 -34.3 -43.95 -34.25 -44.05 -34.15" fill="#336699" fill-rule="evenodd" stroke="none"/>
    <path d="M4.0 -57.25 Q8.3 -63.15 13.55 -62.1 20.05 -60.85 24.4 -51.35 L25.7 -48.5 26.3 -47.05 Q35.45 -26.6 30.35 -12.65 29.75 -11.75 28.75 -11.25 24.4 -6.8 13.1 -8.4 12.3 -5.8 10.95 -3.55 6.9 3.55 0.15 3.55 -6.55 3.55 -12.05 -3.55 -14.3 -6.5 -15.75 -9.9 L-15.55 -9.85 -14.85 -9.8 Q-14.15 -9.8 -13.6 -10.3 -12.85 -11.0 -12.9 -12.3 L-13.7 -14.8 Q-13.7 -15.85 -13.2 -16.05 L-12.35 -16.05 -11.1 -15.75 Q-10.55 -13.7 -8.2 -12.5 -5.85 -11.4 -3.2 -11.4 L-1.55 -11.55 -0.5 -12.0 -0.1 -11.8 -0.05 -11.8 -0.05 -11.55 Q7.4 -9.2 13.1 -8.4 7.4 -9.2 -0.05 -11.55 L-0.05 -11.8 Q0.4 -20.15 -3.2 -26.0 L1.95 -25.35 1.85 -25.55 -3.55 -26.15 -6.85 -29.15 -8.6 -30.7 -8.9 -31.0 Q-12.35 -33.3 -16.1 -33.3 L-17.1 -33.15 -15.15 -37.6 Q-11.0 -44.55 -4.25 -44.55 2.5 -44.55 7.9 -37.6 9.85 -35.05 11.25 -32.15 L11.25 -32.1 11.25 -32.05 Q12.0 -28.1 12.05 -24.05 L1.95 -25.35 12.05 -24.05 Q12.0 -28.1 11.25 -32.05 L11.25 -32.1 11.25 -32.15 10.9 -33.7 9.5 -38.55 9.25 -39.2 Q3.65 -47.1 4.0 -57.25 M-21.0 -15.1 Q-23.3 -9.45 -26.15 -7.25 -29.3 -4.85 -33.15 -6.65 -41.95 -10.8 -50.25 -20.7 L-50.05 -21.0 Q-45.85 -27.05 -44.05 -34.15 L-43.95 -34.25 -33.75 -24.55 Q-32.7 -38.5 -30.4 -46.8 L-29.9 -48.5 -28.85 -51.45 Q-24.15 -57.2 -19.5 -55.95 L-19.85 -32.35 -21.15 -31.9 -23.5 -30.05 -24.25 -29.2 Q-27.45 -25.5 -27.35 -21.9 -27.3 -19.9 -26.65 -19.35 -26.15 -18.85 -23.65 -18.2 -23.5 -16.5 -22.7 -15.7 -22.1 -15.0 -21.0 -15.1 M16.9 -23.6 L12.05 -24.05 16.9 -23.6" fill="#ffe1c4" fill-rule="evenodd" stroke="none"/>
    <path d="M-18.85 -15.0 L-20.1 -14.75 Q-20.6 -14.75 -21.0 -15.1 -22.1 -15.0 -22.7 -15.7 -23.5 -16.5 -23.65 -18.2 L-23.8 -19.45 Q-23.85 -22.3 -23.15 -23.7 -22.15 -25.75 -19.4 -25.95 L-18.45 -26.2 -18.1 -26.25 -18.45 -26.2 -19.4 -25.95 Q-22.15 -25.75 -23.15 -23.7 -23.85 -22.3 -23.8 -19.45 L-23.65 -18.2 Q-26.15 -18.85 -26.65 -19.35 -27.3 -19.9 -27.35 -21.9 -27.45 -25.5 -24.25 -29.2 L-23.5 -30.05 -21.15 -31.9 -19.85 -32.35 Q-18.7 -33.0 -17.4 -33.15 L-17.1 -33.15 -16.1 -33.3 Q-12.35 -33.3 -8.9 -31.0 L-8.6 -30.7 -6.85 -29.15 -3.55 -26.15 1.85 -25.55 1.95 -25.35 -3.2 -26.0 Q0.4 -20.15 -0.05 -11.8 L-0.1 -11.8 -0.5 -12.0 -1.55 -11.55 -3.2 -11.4 Q-5.85 -11.4 -8.2 -12.5 -10.55 -13.7 -11.1 -15.75 L-12.35 -16.05 -13.2 -16.05 Q-13.7 -15.85 -13.7 -14.8 L-12.9 -12.3 Q-12.85 -11.0 -13.6 -10.3 -14.15 -9.8 -14.85 -9.8 L-15.55 -9.85 -15.75 -9.9 -16.85 -10.25 -17.6 -11.0 Q-18.4 -12.05 -18.45 -14.25 L-18.4 -15.1 -18.4 -15.35 -18.05 -18.05 -17.8 -18.8 Q-16.65 -21.55 -13.35 -22.05 -16.65 -21.55 -17.8 -18.8 L-18.05 -18.05 -18.4 -15.35 -18.4 -15.1 -18.85 -15.0 M-50.05 -21.0 L-51.95 -20.95 Q-56.0 -21.45 -58.25 -23.5 -61.2 -26.15 -60.55 -31.35 -61.35 -32.25 -62.45 -32.6 L-65.7 -30.45 -66.4 -29.95 Q-68.9 -28.3 -69.9 -28.45 -70.8 -28.55 -71.55 -29.4 -72.45 -30.35 -72.3 -31.55 L-70.95 -34.6 -71.05 -34.7 -71.15 -35.65 -69.55 -38.7 -69.7 -39.4 Q-69.45 -41.8 -66.4 -43.25 L-65.7 -43.55 Q-62.5 -44.9 -59.6 -44.55 -55.45 -44.05 -51.2 -40.85 -48.5 -38.85 -44.05 -34.15 -45.85 -27.05 -50.05 -21.0 M-59.35 -34.25 L-60.4 -35.1 -62.0 -35.8 -65.4 -34.7 -66.4 -34.35 -69.1 -33.65 Q-70.5 -33.85 -70.95 -34.6 -70.5 -33.85 -69.1 -33.65 L-66.4 -34.35 -65.4 -34.7 -62.0 -35.8 -60.4 -35.1 -59.35 -34.25 M-50.95 -27.65 Q-53.65 -27.15 -55.2 -29.4 -56.45 -31.15 -56.55 -33.85 -56.6 -34.95 -59.4 -36.55 -61.2 -37.5 -61.7 -38.6 L-61.95 -39.7 -61.55 -40.8 Q-61.15 -41.5 -60.6 -41.45 -59.65 -41.35 -55.7 -38.8 -51.7 -36.3 -50.15 -34.85 -51.7 -36.3 -55.7 -38.8 -59.65 -41.35 -60.6 -41.45 -61.15 -41.5 -61.55 -40.8 L-61.95 -39.7 -61.7 -38.6 Q-61.2 -37.5 -59.4 -36.55 -56.6 -34.95 -56.55 -33.85 -56.45 -31.15 -55.2 -29.4 -53.65 -27.15 -50.95 -27.65 M-69.55 -38.7 L-68.85 -38.15 Q-68.2 -37.8 -67.6 -37.75 L-66.4 -37.7 Q-64.5 -37.8 -61.7 -38.6 -64.5 -37.8 -66.4 -37.7 L-67.6 -37.75 Q-68.2 -37.8 -68.85 -38.15 L-69.55 -38.7" fill="#ffffff" fill-rule="evenodd" stroke="none"/>
    <path d="M1.6 -53.8 L0.85 -53.85 1.45 -54.45 1.7 -54.75 0.5 -55.25 Q0.55 -55.85 0.0 -56.95 L-0.4 -58.0 -0.85 -59.05 Q-1.8 -63.65 -2.8 -67.05 -4.55 -72.65 -10.4 -72.3 -16.3 -71.9 -16.65 -68.55 -17.0 -65.1 -16.0 -57.6 L-16.1 -55.5 -16.45 -54.45 -16.4 -53.55 M1.7 -54.75 Q2.65 -56.3 4.0 -57.25 8.3 -63.15 13.55 -62.1 20.05 -60.85 24.4 -51.35 L25.7 -48.5 26.3 -47.05 Q35.45 -26.6 30.35 -12.65 29.75 -11.75 28.75 -11.25 L29.4 -7.25 Q31.15 4.2 30.5 12.55 3.1 19.25 -19.55 13.4 -18.2 4.5 -18.5 -7.25 L-18.8 -14.2 -18.85 -15.0 -20.1 -14.75 Q-20.6 -14.75 -21.0 -15.1 -23.3 -9.45 -26.15 -7.25 -29.3 -4.85 -33.15 -6.65 -41.95 -10.8 -50.25 -20.7 L-50.05 -21.0 -51.95 -20.95 Q-56.0 -21.45 -58.25 -23.5 -61.2 -26.15 -60.55 -31.35 -61.35 -32.25 -62.45 -32.6 L-65.7 -30.45 -66.4 -29.95 Q-68.9 -28.3 -69.9 -28.45 -70.8 -28.55 -71.55 -29.4 -72.45 -30.35 -72.3 -31.55 L-70.95 -34.6 -71.05 -34.7 -71.15 -35.65 -69.55 -38.7 -69.7 -39.4 Q-69.45 -41.8 -66.4 -43.25 L-65.7 -43.55 Q-62.5 -44.9 -59.6 -44.55 -55.45 -44.05 -51.2 -40.85 -48.5 -38.85 -44.05 -34.15 L-44.0 -34.3 -43.95 -34.25 -33.75 -24.55 Q-32.7 -38.5 -30.4 -46.8 L-29.9 -48.5 -28.85 -51.45 Q-24.15 -57.2 -19.5 -55.95 -17.95 -55.6 -16.45 -54.45 M12.05 -24.05 L16.9 -23.6 M28.75 -11.25 Q24.4 -6.8 13.1 -8.4 7.4 -9.2 -0.05 -11.55 L-0.05 -11.8 -0.1 -11.8 -0.5 -12.0 -1.55 -11.55 -3.2 -11.4 Q-5.85 -11.4 -8.2 -12.5 -10.55 -13.7 -11.1 -15.75 L-12.35 -16.05 -13.2 -16.05 Q-13.7 -15.85 -13.7 -14.8 L-12.9 -12.3 Q-12.85 -11.0 -13.6 -10.3 -14.15 -9.8 -14.85 -9.8 L-15.55 -9.85 -15.75 -9.9 -16.85 -10.25 -17.6 -11.0 Q-18.4 -12.05 -18.45 -14.25 L-18.4 -15.1 -18.4 -15.35 -18.05 -18.05 -17.8 -18.8 Q-16.65 -21.55 -13.35 -22.05 M-50.15 -34.85 Q-51.7 -36.3 -55.7 -38.8 -59.65 -41.35 -60.6 -41.45 -61.15 -41.5 -61.55 -40.8 L-61.95 -39.7 -61.7 -38.6 Q-61.2 -37.5 -59.4 -36.55 -56.6 -34.95 -56.55 -33.85 -56.45 -31.15 -55.2 -29.4 -53.65 -27.15 -50.95 -27.65 M-70.95 -34.6 Q-70.5 -33.85 -69.1 -33.65 L-66.4 -34.35 -65.4 -34.7 -62.0 -35.8 -60.4 -35.1 -59.35 -34.25 M-61.7 -38.6 Q-64.5 -37.8 -66.4 -37.7 L-67.6 -37.75 Q-68.2 -37.8 -68.85 -38.15 L-69.55 -38.7 M-18.1 -26.25 L-18.45 -26.2 -19.4 -25.95 Q-22.15 -25.75 -23.15 -23.7 -23.85 -22.3 -23.8 -19.45 L-23.65 -18.2 Q-26.15 -18.85 -26.65 -19.35 -27.3 -19.9 -27.35 -21.9 -27.45 -25.5 -24.25 -29.2 L-23.5 -30.05 -21.15 -31.9 -19.85 -32.35 Q-18.7 -33.0 -17.4 -33.15 L-17.1 -33.15 -16.1 -33.3 Q-12.35 -33.3 -8.9 -31.0 L-8.6 -30.7 -6.85 -29.15 -3.55 -26.15 1.85 -25.55 M-19.85 -32.35 L-19.5 -55.95 -19.5 -56.05 M-21.0 -15.1 Q-22.1 -15.0 -22.7 -15.7 -23.5 -16.5 -23.65 -18.2 M-18.85 -15.0 L-18.4 -15.1 M-0.05 -11.8 Q0.4 -20.15 -3.2 -26.0 L1.95 -25.35 12.05 -24.05 Q12.0 -28.1 11.25 -32.05 L11.25 -32.1 11.25 -32.15 10.9 -33.7 9.5 -38.55 9.25 -39.2 Q3.65 -47.1 4.0 -57.25 L3.85 -57.7" fill="none" stroke="#000000" stroke-linecap="round" stroke-linejoin="round" stroke-width="1.0"/>
    <path d="M11.25 -32.15 Q9.85 -35.05 7.9 -37.6 2.5 -44.55 -4.25 -44.55 -11.0 -44.55 -15.15 -37.6 L-17.1 -33.15 M13.1 -8.4 Q12.3 -5.8 10.95 -3.55 6.9 3.55 0.15 3.55 -6.55 3.55 -12.05 -3.55 -14.3 -6.5 -15.75 -9.9" fill="none" stroke="#336699" stroke-linecap="round" stroke-linejoin="round" stroke-width="1.0"/>
    <path d="M-18.45 -14.25 L-18.8 -14.2 -18.85 -15.0 -18.4 -15.1 -18.45 -14.25" fill="#336699" fill-rule="evenodd" stroke="none"/>
    <path d="M16.9 -23.6 L12.05 -24.05 16.9 -23.6 M25.7 -48.5 Q35.7 -25.4 30.35 -12.65 29.75 -11.75 28.75 -11.25 22.2 -4.55 -0.05 -11.55 L-0.05 -11.8 Q0.4 -20.15 -3.2 -26.0 L1.95 -25.35 12.05 -24.05 Q11.95 -32.0 9.15 -39.5 L24.55 -48.5 25.7 -48.5" fill="#ffe1c4" fill-rule="evenodd" stroke="none"/>
    <path d="M-0.05 -11.8 L-0.1 -11.8 -0.5 -12.0 -1.55 -11.55 -3.2 -11.4 Q-5.85 -11.4 -8.2 -12.5 -10.55 -13.7 -11.1 -15.75 L-12.35 -16.05 -13.2 -16.05 Q-13.7 -15.85 -13.7 -14.8 L-12.9 -12.3 Q-12.85 -11.0 -13.6 -10.3 -14.15 -9.8 -14.85 -9.8 L-15.55 -9.85 -16.85 -10.25 -17.6 -11.0 Q-18.4 -12.05 -18.45 -14.25 L-18.4 -15.1 -18.85 -15.0 -20.1 -14.75 Q-20.6 -14.75 -21.0 -15.1 -22.1 -15.0 -22.7 -15.7 -23.5 -16.5 -23.65 -18.2 -26.15 -18.85 -26.65 -19.35 -27.3 -19.9 -27.35 -21.9 -27.45 -25.5 -24.25 -29.2 L-23.5 -30.05 -21.15 -31.9 -19.85 -32.35 Q-18.7 -33.0 -17.4 -33.15 L-16.1 -33.3 Q-12.35 -33.3 -8.9 -31.0 L-3.55 -26.15 1.85 -25.55 1.95 -25.35 -3.2 -26.0 Q0.4 -20.15 -0.05 -11.8 M-18.1 -26.25 L-19.4 -25.95 Q-22.15 -25.75 -23.15 -23.7 -23.85 -22.3 -23.8 -19.45 L-23.65 -18.2 -23.8 -19.45 Q-23.85 -22.3 -23.15 -23.7 -22.15 -25.75 -19.4 -25.95 L-18.1 -26.25 M-13.35 -22.05 Q-16.65 -21.55 -17.8 -18.8 -18.4 -17.4 -18.4 -15.1 -18.4 -17.4 -17.8 -18.8 -16.65 -21.55 -13.35 -22.05" fill="#e5e5e5" fill-rule="evenodd" stroke="none"/>
    <path d="M12.05 -24.05 L16.9 -23.6 M25.7 -48.5 Q35.7 -25.4 30.35 -12.65 29.75 -11.75 28.75 -11.25 22.2 -4.55 -0.05 -11.55 L-0.05 -11.8 -0.1 -11.8 -0.5 -12.0 -1.55 -11.55 -3.2 -11.4 Q-5.85 -11.4 -8.2 -12.5 -10.55 -13.7 -11.1 -15.75 L-12.35 -16.05 -13.2 -16.05 Q-13.7 -15.85 -13.7 -14.8 L-12.9 -12.3 Q-12.85 -11.0 -13.6 -10.3 -14.15 -9.8 -14.85 -9.8 L-15.55 -9.85 -16.85 -10.25 -17.6 -11.0 Q-18.4 -12.05 -18.45 -14.25 L-18.4 -15.1 -18.85 -15.0 -20.1 -14.75 Q-20.6 -14.75 -21.0 -15.1 -22.1 -15.0 -22.7 -15.7 -23.5 -16.5 -23.65 -18.2 -26.15 -18.85 -26.65 -19.35 -27.3 -19.9 -27.35 -21.9 -27.45 -25.5 -24.25 -29.2 L-23.5 -30.05 -21.15 -31.9 -19.85 -32.35 Q-18.7 -33.0 -17.4 -33.15 L-16.1 -33.3 Q-12.35 -33.3 -8.9 -31.0 L-3.55 -26.15 1.85 -25.55 M-18.8 -14.2 L-18.85 -15.0 M1.95 -25.35 L12.05 -24.05 Q11.95 -32.0 9.15 -39.5 M-23.65 -18.2 L-23.8 -19.45 Q-23.85 -22.3 -23.15 -23.7 -22.15 -25.75 -19.4 -25.95 L-18.1 -26.25 M-18.4 -15.1 Q-18.4 -17.4 -17.8 -18.8 -16.65 -21.55 -13.35 -22.05 M-3.2 -26.0 L1.95 -25.35" fill="none" stroke="#000000" stroke-linecap="round" stroke-linejoin="round" stroke-width="1.0"/>
  </g>
</svg>
