<?xml version="1.0" encoding="UTF-8" standalone="no"?>
<svg xmlns:xlink="http://www.w3.org/1999/xlink" height="93.95px" width="126.55px" xmlns="http://www.w3.org/2000/svg">
  <g transform="matrix(1.0, 0.0, 0.0, 1.0, 69.05, 78.55)">
    <path d="M-45.35 -37.5 Q-38.6 -42.8 -34.15 -48.0 L-32.55 -46.45 -23.5 -37.3 Q-10.2 -51.6 1.1 -59.2 8.9 -62.75 13.75 -60.4 -2.25 -41.55 -7.45 -27.2 L-9.95 -24.75 Q-22.9 -12.7 -29.65 -18.1 -37.0 -23.95 -44.4 -36.1 L-45.35 -37.5 M-19.1 -32.0 L-23.5 -37.3 -19.1 -32.0 M36.7 -1.5 Q34.9 0.6 33.0 1.5 31.5 1.95 29.85 1.5 25.1 0.65 18.55 -7.45 12.75 -0.4 6.15 -0.35 -0.45 -0.3 -4.0 -7.3 -7.4 -14.2 -5.7 -24.05 -3.95 -33.95 1.9 -41.0 7.85 -47.95 14.45 -48.0 L17.95 -47.45 Q22.05 -46.05 24.45 -41.2 26.85 -36.4 26.8 -30.25 L26.5 -26.25 27.55 -25.15 Q31.65 -53.15 38.75 -59.45 44.8 -62.4 50.25 -60.25 57.0 -55.75 55.3 -41.95 52.15 -25.9 43.25 -10.25 52.15 -25.9 55.3 -41.95 M43.25 -10.25 Q39.95 -4.45 36.7 -1.5 M18.55 -7.45 Q23.7 -13.5 25.8 -22.15 L26.5 -26.25 25.8 -22.15 Q23.7 -13.5 18.55 -7.45 M30.35 -22.15 L27.55 -25.15 30.35 -22.15" fill="#ffe1c4" fill-rule="evenodd" stroke="none"/>
    <path d="M35.15 -57.7 L35.3 -58.15 Q37.0 -59.15 38.75 -59.45 31.65 -53.15 27.55 -25.15 L26.5 -26.25 26.8 -30.25 Q26.85 -36.4 24.45 -41.2 22.05 -46.05 17.95 -47.45 L14.45 -48.0 Q7.85 -47.95 1.9 -41.0 -3.95 -33.95 -5.7 -24.05 -7.4 -14.2 -4.0 -7.3 -0.45 -0.3 6.15 -0.35 12.75 -0.4 18.55 -7.45 25.1 0.65 29.85 1.5 31.5 1.95 33.0 1.5 34.9 0.6 36.7 -1.5 L35.85 2.45 Q34.45 8.6 32.65 14.9 1.25 7.1 -17.5 11.25 -14.25 -6.75 -9.95 -20.1 L-7.45 -27.2 Q-2.25 -41.55 13.75 -60.4 15.3 -59.8 16.5 -58.55 L17.05 -59.25 17.35 -59.95 18.4 -62.6 18.85 -63.95 Q19.85 -71.45 21.1 -74.75 22.35 -78.05 28.2 -77.6 34.0 -77.15 34.25 -71.35 34.35 -67.85 34.05 -63.2 L34.0 -62.05 33.9 -60.9 Q34.0 -59.95 34.2 -59.2 L35.35 -58.55 34.5 -57.95 35.15 -57.7" fill="#336699" fill-rule="evenodd" stroke="none"/>
    <path d="M-65.3 -51.95 L-63.9 -51.85 Q-62.95 -51.85 -61.7 -52.35 -59.6 -53.25 -58.15 -53.55 -57.9 -51.8 -56.4 -50.4 -59.75 -49.35 -61.25 -47.9 -62.35 -46.85 -64.8 -46.85 L-66.65 -47.1 Q-68.55 -47.95 -66.9 -50.75 L-65.75 -52.15 -65.3 -51.95" fill="#e5e5e5" fill-rule="evenodd" stroke="none"/>
    <path d="M-34.15 -48.0 Q-38.6 -42.8 -45.35 -37.5 L-44.4 -36.1 -45.7 -37.85 Q-49.4 -38.0 -52.15 -40.3 -55.1 -42.75 -55.45 -45.8 -56.75 -45.6 -60.15 -43.85 -64.0 -41.85 -65.05 -41.85 -65.55 -41.85 -66.65 -42.35 -68.15 -43.0 -68.15 -43.95 L-67.65 -45.6 -66.65 -47.1 -64.8 -46.85 Q-62.35 -46.85 -61.25 -47.9 -59.75 -49.35 -56.4 -50.4 -57.9 -51.8 -58.15 -53.55 L-58.2 -54.35 Q-58.2 -56.6 -56.35 -56.6 L-50.45 -54.6 Q-48.15 -53.55 -44.45 -50.4 L-40.5 -47.1 -44.45 -50.4 Q-48.15 -53.55 -50.45 -54.6 L-56.35 -56.6 Q-58.2 -56.6 -58.2 -54.35 L-58.15 -53.55 Q-59.6 -53.25 -61.7 -52.35 -62.95 -51.85 -63.9 -51.85 L-65.3 -51.95 -65.4 -52.35 -65.75 -52.15 Q-66.65 -52.65 -66.65 -53.95 -66.65 -55.85 -62.4 -58.6 -57.75 -61.6 -51.05 -60.55 -44.35 -59.5 -36.1 -50.2 L-32.55 -46.45 -34.15 -48.0 -34.15 -48.05 -34.15 -48.0 M-46.95 -40.35 L-48.8 -41.15 -50.45 -42.35 Q-51.15 -43.15 -51.25 -45.3 -51.35 -47.35 -51.7 -47.6 L-55.4 -49.55 -56.4 -50.4 -55.4 -49.55 -51.7 -47.6 Q-51.35 -47.35 -51.25 -45.3 -51.15 -43.15 -50.45 -42.35 L-48.8 -41.15 -46.95 -40.35" fill="#ffffff" fill-rule="evenodd" stroke="none"/>
    <path d="M35.3 -58.15 Q37.0 -59.15 38.75 -59.45 L38.9 -59.9 M-45.35 -37.5 L-44.4 -36.1 -45.7 -37.85 Q-49.4 -38.0 -52.15 -40.3 -55.1 -42.75 -55.45 -45.8 -56.75 -45.6 -60.15 -43.85 -64.0 -41.85 -65.05 -41.85 -65.55 -41.85 -66.65 -42.35 -68.15 -43.0 -68.15 -43.95 L-67.65 -45.6 -66.65 -47.1 Q-68.55 -47.95 -66.9 -50.75 L-65.75 -52.15 Q-66.65 -52.65 -66.65 -53.95 -66.65 -55.85 -62.4 -58.6 -57.75 -61.6 -51.05 -60.55 -44.35 -59.5 -36.1 -50.2 L-32.55 -46.45 -23.5 -37.3 Q-10.2 -51.6 1.1 -59.2 8.9 -62.75 13.75 -60.4 15.3 -59.8 16.5 -58.55 L17.05 -59.25 17.35 -59.95 18.4 -62.6 18.85 -63.95 Q19.85 -71.45 21.1 -74.75 22.35 -78.05 28.2 -77.6 34.0 -77.15 34.25 -71.35 34.35 -67.85 34.05 -63.2 L34.0 -62.05 33.9 -60.9 Q34.0 -59.95 34.2 -59.2 L35.35 -58.55 34.5 -57.95 35.15 -57.7 M-40.5 -47.1 L-44.45 -50.4 Q-48.15 -53.55 -50.45 -54.6 L-56.35 -56.6 Q-58.2 -56.6 -58.2 -54.35 L-58.15 -53.55 Q-59.6 -53.25 -61.7 -52.35 -62.95 -51.85 -63.9 -51.85 L-65.3 -51.95 -65.75 -52.15 M-58.15 -53.55 Q-57.9 -51.8 -56.4 -50.4 L-55.4 -49.55 -51.7 -47.6 Q-51.35 -47.35 -51.25 -45.3 -51.15 -43.15 -50.45 -42.35 L-48.8 -41.15 -46.95 -40.35 M-66.65 -47.1 L-64.8 -46.85 Q-62.35 -46.85 -61.25 -47.9 -59.75 -49.35 -56.4 -50.4 M-34.15 -48.05 L-34.15 -48.0 -32.55 -46.45 M-23.5 -37.3 L-19.1 -32.0 M-7.45 -27.2 Q-2.25 -41.55 13.75 -60.4 L13.85 -60.5 M36.7 -1.5 L35.85 2.45 Q34.45 8.6 32.65 14.9 1.25 7.1 -17.5 11.25 -14.25 -6.75 -9.95 -20.1 L-7.45 -27.2 -9.95 -24.75 Q-22.9 -12.7 -29.65 -18.1 -37.0 -23.95 -44.4 -36.1 M18.55 -7.45 Q25.1 0.65 29.85 1.5 31.5 1.95 33.0 1.5 34.9 0.6 36.7 -1.5 39.95 -4.45 43.25 -10.25 52.15 -25.9 55.3 -41.95 57.0 -55.75 50.25 -60.25 44.8 -62.4 38.75 -59.45 31.65 -53.15 27.55 -25.15 L26.5 -26.25 M27.55 -25.15 L30.35 -22.15" fill="none" stroke="#000000" stroke-linecap="round" stroke-linejoin="round" stroke-width="1.0"/>
    <path d="M18.55 -7.45 Q12.75 -0.4 6.15 -0.35 -0.45 -0.3 -4.0 -7.3 -7.4 -14.2 -5.7 -24.05 -3.95 -33.95 1.9 -41.0 7.85 -47.95 14.45 -48.0 L17.95 -47.45 Q22.05 -46.05 24.45 -41.2 26.85 -36.4 26.8 -30.25 L26.5 -26.25 25.8 -22.15 Q23.7 -13.5 18.55 -7.45 Z" fill="none" stroke="#336699" stroke-linecap="round" stroke-linejoin="round" stroke-width="1.0"/>
    <path d="M43.4 -61.15 Q46.95 -61.6 50.25 -60.3 57.0 -55.8 55.3 -42.0 52.15 -25.95 43.25 -10.3 39.95 -4.5 36.7 -1.55 34.9 0.55 33.0 1.45 25.0 3.7 12.2 -16.55 L12.05 -16.9 Q15.15 -17.8 17.45 -19.9 21.25 -23.0 23.35 -29.15 L23.55 -29.35 27.55 -25.2 34.9 -40.2 43.4 -61.15 M30.35 -22.2 L27.55 -25.2 30.35 -22.2" fill="#ffe1c4" fill-rule="evenodd" stroke="none"/>
    <path d="M23.35 -29.15 L23.5 -29.4 23.55 -29.35 23.35 -29.15 M11.95 -16.9 L12.05 -16.9 12.2 -16.55 11.95 -16.9" fill="#336699" fill-rule="evenodd" stroke="none"/>
    <path d="M1.65 -29.9 L0.2 -29.4 Q-0.35 -29.4 -1.15 -29.9 -2.15 -30.5 -2.15 -31.4 -2.15 -34.7 1.6 -37.15 3.55 -38.45 5.65 -39.0 L8.8 -39.4 Q11.9 -39.4 15.15 -37.85 18.75 -35.9 23.35 -29.15 21.25 -23.0 17.45 -19.9 15.15 -17.8 12.05 -16.9 L11.95 -16.9 11.55 -17.35 9.4 -16.9 Q8.4 -16.9 6.55 -18.0 4.7 -19.1 3.6 -19.15 L0.1 -19.75 Q-2.35 -20.65 -2.4 -22.6 L-2.4 -22.65 Q-2.4 -24.1 -1.65 -24.65 -0.95 -25.15 0.85 -25.15 L3.65 -25.0 Q6.3 -24.6 7.25 -23.3 L7.35 -23.15 7.35 -23.4 Q7.15 -23.6 7.1 -24.7 L6.85 -24.9 Q6.35 -25.35 6.35 -26.65 L6.4 -26.9 6.35 -26.85 3.75 -27.05 Q1.6 -27.65 1.6 -29.4 L1.65 -29.9 Q1.95 -31.3 3.65 -33.35 5.85 -35.95 7.6 -35.9 L11.5 -35.9 7.6 -35.9 Q5.85 -35.95 3.65 -33.35 1.95 -31.3 1.65 -29.9 M15.5 -32.9 L12.4 -33.15 Q10.15 -33.15 8.1 -30.4 6.5 -28.25 6.4 -26.9 6.5 -28.25 8.1 -30.4 10.15 -33.15 12.4 -33.15 L15.5 -32.9 M12.0 -17.65 L11.55 -17.35 12.0 -17.65 M17.45 -19.9 Q16.95 -20.0 16.55 -20.35 15.5 -21.35 15.5 -22.75 L16.25 -26.4 Q15.6 -27.4 13.9 -27.4 13.0 -27.4 11.55 -25.9 10.05 -24.4 8.8 -24.4 L7.1 -24.7 8.8 -24.4 Q10.05 -24.4 11.55 -25.9 13.0 -27.4 13.9 -27.4 15.6 -27.4 16.25 -26.4 L15.5 -22.75 Q15.5 -21.35 16.55 -20.35 16.95 -20.0 17.45 -19.9" fill="#ffffff" fill-rule="evenodd" stroke="none"/>
    <path d="M43.4 -61.15 Q46.95 -61.6 50.25 -60.3 57.0 -55.8 55.3 -42.0 52.15 -25.95 43.25 -10.3 39.95 -4.5 36.7 -1.55 L35.85 2.4 M34.9 -40.2 L27.55 -25.2 23.55 -29.35 23.5 -29.4 23.35 -29.15 Q18.75 -35.9 15.15 -37.85 11.9 -39.4 8.8 -39.4 L5.65 -39.0 Q3.55 -38.45 1.6 -37.15 -2.15 -34.7 -2.15 -31.4 -2.15 -30.5 -1.15 -29.9 -0.35 -29.4 0.2 -29.4 L1.65 -29.9 Q1.95 -31.3 3.65 -33.35 5.85 -35.95 7.6 -35.9 L11.5 -35.9 M1.65 -29.9 L1.6 -29.4 Q1.6 -27.65 3.75 -27.05 L6.35 -26.85 6.4 -26.9 Q6.5 -28.25 8.1 -30.4 10.15 -33.15 12.4 -33.15 L15.5 -32.9 M7.1 -24.7 Q7.15 -23.6 7.35 -23.4 L7.35 -23.15 7.25 -23.3 Q6.3 -24.6 3.65 -25.0 L0.85 -25.15 Q-0.95 -25.15 -1.65 -24.65 -2.4 -24.1 -2.4 -22.65 L-2.4 -22.6 Q-2.35 -20.65 0.1 -19.75 L3.6 -19.15 Q4.7 -19.1 6.55 -18.0 8.4 -16.9 9.4 -16.9 L11.55 -17.35 12.0 -17.65 M6.4 -26.9 L6.35 -26.65 Q6.35 -25.35 6.85 -24.9 L7.1 -24.7 8.8 -24.4 Q10.05 -24.4 11.55 -25.9 13.0 -27.4 13.9 -27.4 15.6 -27.4 16.25 -26.4 L15.5 -22.75 Q15.5 -21.35 16.55 -20.35 16.95 -20.0 17.45 -19.9 M11.95 -16.9 L11.55 -17.35 M12.05 -16.9 L11.95 -16.9 12.2 -16.55 Q25.0 3.7 33.0 1.45 34.9 0.55 36.7 -1.55 M27.55 -25.2 L30.35 -22.2" fill="none" stroke="#000000" stroke-linecap="round" stroke-linejoin="round" stroke-width="1.0"/>
  </g>
</svg>
