<?xml version="1.0" encoding="UTF-8" standalone="no"?>
<svg xmlns:xlink="http://www.w3.org/1999/xlink" height="95.8px" width="111.35px" xmlns="http://www.w3.org/2000/svg">
  <g transform="matrix(1.0, 0.0, 0.0, 1.0, 44.2, 77.35)">
    <path d="M65.15 -11.45 Q63.65 -1.7 54.4 -2.2 51.05 -3.0 47.3 -5.95 L46.15 0.5 Q44.4 9.0 42.0 17.95 18.75 9.55 -4.75 11.25 -2.0 -4.45 3.9 -20.9 14.3 -47.45 16.6 -57.2 18.45 -57.55 19.95 -57.15 L21.55 -56.95 22.3 -56.75 Q22.35 -57.55 22.75 -58.25 L23.35 -58.75 24.3 -60.85 24.85 -62.75 24.95 -63.5 Q25.9 -70.4 27.1 -73.55 28.35 -76.85 34.2 -76.4 40.0 -75.95 40.25 -70.15 L40.15 -63.5 40.05 -62.0 40.05 -61.1 40.15 -60.05 Q40.5 -58.85 40.35 -58.05 L41.35 -57.35 41.35 -57.35 Q49.4 -61.75 56.25 -59.05 59.7 -55.85 60.8 -54.05 L44.05 -47.7 M-18.75 -47.3 L-18.65 -47.5 -18.6 -47.4 -18.75 -47.3 M40.4 -48.3 L39.3 -49.3 Q38.4 -49.9 37.35 -50.0 36.25 -50.1 35.5 -49.4 34.8 -48.85 34.75 -47.7 L31.7 -47.95 Q30.95 -47.6 30.75 -46.7 L27.2 -47.3 Q20.6 -47.3 15.0 -40.4 9.45 -33.4 8.15 -23.5 6.9 -13.65 10.65 -6.7 14.5 0.3 21.1 0.3 27.7 0.3 33.2 -6.7 36.2 -10.45 38.0 -15.05 39.1 -18.05 39.75 -21.35 M38.0 -15.05 L38.35 -14.65 40.25 -12.85 40.25 -12.8 39.05 -13.9 38.35 -14.65 39.05 -13.9 40.25 -12.8 40.25 -12.85 38.35 -14.65 38.0 -15.05 M50.1 -25.25 Q54.5 -22.4 58.55 -17.2 54.5 -22.4 50.1 -25.25 M44.05 -47.65 Q41.95 -49.25 40.4 -48.3 M40.25 -12.8 Q42.85 -9.5 45.4 -7.3 L47.3 -5.95 45.4 -7.3 Q42.85 -9.5 40.25 -12.8" fill="#336699" fill-rule="evenodd" stroke="none"/>
    <path d="M65.15 -11.45 Q66.65 -21.25 64.2 -41.35 66.65 -21.25 65.15 -11.45 M3.9 -20.9 Q-5.95 -8.75 -12.1 -12.85 -19.9 -18.0 -28.5 -37.2 L-28.35 -37.3 Q-22.25 -38.8 -18.75 -47.3 L-18.6 -47.4 -8.6 -32.1 Q5.35 -55.45 14.8 -57.2 15.75 -57.35 16.6 -57.2 14.3 -47.45 3.9 -20.9 M40.4 -29.45 L40.05 -23.5 39.75 -21.35 Q39.1 -18.05 38.0 -15.05 36.2 -10.45 33.2 -6.7 27.7 0.3 21.1 0.3 14.5 0.3 10.65 -6.7 6.9 -13.65 8.15 -23.5 9.45 -33.4 15.0 -40.4 20.6 -47.3 27.2 -47.3 L30.75 -46.7 Q34.9 -45.3 37.55 -40.4 40.15 -35.6 40.4 -29.45 M47.55 -26.7 L47.85 -26.95 Q49.05 -26.3 50.1 -25.25 49.05 -26.3 47.85 -26.95 L47.55 -26.7 Q49.5 -31.8 48.45 -38.0 47.15 -45.25 44.05 -47.65 M39.75 -21.35 Q44.15 -22.65 47.55 -26.7 M-6.5 -28.9 L-8.6 -32.1 -6.5 -28.9" fill="#ffe1c4" fill-rule="evenodd" stroke="none"/>
    <path d="M-28.35 -37.3 Q-34.75 -38.65 -35.35 -43.8 -35.85 -49.15 -35.4 -50.25 -36.2 -51.45 -39.8 -52.9 -43.1 -54.3 -43.35 -56.55 L-42.7 -58.95 -42.6 -59.05 Q-43.4 -59.9 -43.5 -61.35 L-43.7 -62.8 Q-43.5 -63.65 -42.35 -64.4 L-42.4 -64.8 Q-42.5 -66.2 -41.3 -66.8 L-38.8 -67.25 Q-31.4 -67.9 -26.4 -63.55 -20.8 -58.6 -18.75 -47.3 -22.25 -38.8 -28.35 -37.3 M40.4 -48.3 Q39.3 -47.35 39.8 -46.3 L41.9 -42.9 Q43.45 -40.55 42.65 -36.5 43.45 -40.55 41.9 -42.9 L39.8 -46.3 Q39.3 -47.35 40.4 -48.3 41.95 -49.25 44.05 -47.65 47.15 -45.25 48.45 -38.0 49.5 -31.8 47.55 -26.7 44.15 -22.65 39.75 -21.35 L40.05 -23.5 40.4 -29.45 Q40.15 -35.6 37.55 -40.4 34.9 -45.3 30.75 -46.7 30.95 -47.6 31.7 -47.95 L34.75 -47.7 Q34.8 -48.85 35.5 -49.4 36.25 -50.1 37.35 -50.0 38.4 -49.9 39.3 -49.3 L40.4 -48.3 M39.7 -37.5 Q39.6 -41.5 37.15 -43.9 34.7 -46.25 34.7 -47.35 L34.75 -47.7 34.7 -47.35 Q34.7 -46.25 37.15 -43.9 39.6 -41.5 39.7 -37.5 M41.7 -30.35 L40.4 -29.45 41.7 -30.35 M-32.6 -60.5 Q-34.45 -61.65 -39.05 -62.05 -41.9 -62.2 -42.35 -64.4 -41.9 -62.2 -39.05 -62.05 -34.45 -61.65 -32.6 -60.5 -32.65 -61.15 -32.3 -61.55 -31.85 -62.35 -30.55 -62.5 -28.6 -62.65 -26.15 -59.0 -23.8 -55.35 -22.75 -51.55 L-22.2 -49.65 -22.75 -51.55 Q-23.8 -55.35 -26.15 -59.0 -28.6 -62.65 -30.55 -62.5 -31.85 -62.35 -32.3 -61.55 -32.65 -61.15 -32.6 -60.5 L-32.65 -59.35 Q-32.55 -58.2 -31.7 -56.45 -30.95 -54.65 -30.45 -54.2 L-31.2 -51.3 -31.45 -48.7 Q-31.3 -46.7 -29.95 -44.35 -28.9 -42.25 -28.1 -41.9 -28.9 -42.25 -29.95 -44.35 -31.3 -46.7 -31.45 -48.7 L-31.2 -51.3 -30.45 -54.2 Q-30.95 -54.65 -31.7 -56.45 -32.55 -58.2 -32.65 -59.35 L-32.6 -60.5 M-34.05 -55.4 Q-35.35 -57.0 -39.65 -57.7 -41.65 -58.05 -42.6 -59.05 -41.65 -58.05 -39.65 -57.7 -35.35 -57.0 -34.05 -55.4" fill="#ffffff" fill-rule="evenodd" stroke="none"/>
    <path d="M41.35 -57.35 Q49.4 -61.75 56.25 -59.05 63.0 -54.55 64.2 -41.35 66.65 -21.25 65.15 -11.45 63.65 -1.7 54.4 -2.2 51.05 -3.0 47.3 -5.95 L46.15 0.5 Q44.4 9.0 42.0 17.95 18.75 9.55 -4.75 11.25 -2.0 -4.45 3.9 -20.9 -5.95 -8.75 -12.1 -12.85 -19.9 -18.0 -28.5 -37.2 L-28.35 -37.3 Q-34.75 -38.65 -35.35 -43.8 -35.85 -49.15 -35.4 -50.25 -36.2 -51.45 -39.8 -52.9 -43.1 -54.3 -43.35 -56.55 L-42.7 -58.95 -42.6 -59.05 Q-43.4 -59.9 -43.5 -61.35 L-43.7 -62.8 Q-43.5 -63.65 -42.35 -64.4 L-42.4 -64.8 Q-42.5 -66.2 -41.3 -66.8 L-38.8 -67.25 Q-31.4 -67.9 -26.4 -63.55 -20.8 -58.6 -18.75 -47.3 L-18.65 -47.5 -18.6 -47.4 -8.6 -32.1 Q5.35 -55.45 14.8 -57.2 15.75 -57.35 16.6 -57.2 18.45 -57.55 19.95 -57.15 L21.55 -56.95 22.3 -56.75 Q22.35 -57.55 22.75 -58.25 L23.35 -58.75 24.3 -60.85 24.85 -62.75 24.95 -63.5 Q25.9 -70.4 27.1 -73.55 28.35 -76.85 34.2 -76.4 40.0 -75.95 40.25 -70.15 L40.15 -63.5 40.05 -62.0 40.05 -61.1 40.15 -60.05 Q40.5 -58.85 40.35 -58.05 L41.35 -57.35 M42.65 -36.5 Q43.45 -40.55 41.9 -42.9 L39.8 -46.3 Q39.3 -47.35 40.4 -48.3 L39.3 -49.3 Q38.4 -49.9 37.35 -50.0 36.25 -50.1 35.5 -49.4 34.8 -48.85 34.75 -47.7 L34.7 -47.35 Q34.7 -46.25 37.15 -43.9 39.6 -41.5 39.7 -37.5 M34.75 -47.7 L31.7 -47.95 Q30.95 -47.6 30.75 -46.7 M40.4 -29.45 L41.7 -30.35 M38.35 -14.65 L39.05 -13.9 40.25 -12.8 40.25 -12.85 38.35 -14.65 38.0 -15.05 M16.6 -57.25 L16.6 -57.2 Q14.3 -47.45 3.9 -20.9 M58.55 -17.2 Q54.5 -22.4 50.1 -25.25 49.05 -26.3 47.85 -26.95 L47.55 -26.7 Q49.5 -31.8 48.45 -38.0 47.15 -45.25 44.05 -47.65 41.95 -49.25 40.4 -48.3 M47.3 -5.95 L45.4 -7.3 Q42.85 -9.5 40.25 -12.8 M-42.6 -59.05 Q-41.65 -58.05 -39.65 -57.7 -35.35 -57.0 -34.05 -55.4 M-22.2 -49.65 L-22.75 -51.55 Q-23.8 -55.35 -26.15 -59.0 -28.6 -62.65 -30.55 -62.5 -31.85 -62.35 -32.3 -61.55 -32.65 -61.15 -32.6 -60.5 L-32.65 -59.35 Q-32.55 -58.2 -31.7 -56.45 -30.95 -54.65 -30.45 -54.2 L-31.2 -51.3 -31.45 -48.7 Q-31.3 -46.7 -29.95 -44.35 -28.9 -42.25 -28.1 -41.9 M-42.35 -64.4 Q-41.9 -62.2 -39.05 -62.05 -34.45 -61.65 -32.6 -60.5 M-8.6 -32.1 L-6.5 -28.9" fill="none" stroke="#000000" stroke-linecap="round" stroke-linejoin="round" stroke-width="1.0"/>
    <path d="M40.4 -29.45 L40.05 -23.5 39.75 -21.35 Q39.1 -18.05 38.0 -15.05 36.2 -10.45 33.2 -6.7 27.7 0.3 21.1 0.3 14.5 0.3 10.65 -6.7 6.9 -13.65 8.15 -23.5 9.45 -33.4 15.0 -40.4 20.6 -47.3 27.2 -47.3 L30.75 -46.7 Q34.9 -45.3 37.55 -40.4 40.15 -35.6 40.4 -29.45 Z" fill="none" stroke="#336699" stroke-linecap="round" stroke-linejoin="round" stroke-width="1.0"/>
    <path d="M60.8 -54.0 L62.35 -50.5 Q63.7 -46.6 64.2 -41.35 66.65 -21.25 65.15 -11.45 63.65 -1.7 54.4 -2.2 51.05 -3.0 47.3 -5.95 L45.4 -7.3 Q42.85 -9.5 40.25 -12.8 L40.25 -12.85 38.65 -14.35 38.35 -14.65 35.5 -17.95 Q34.05 -19.25 32.75 -20.9 L32.8 -21.0 33.7 -20.9 Q42.0 -20.05 47.55 -26.7 L47.85 -26.95 Q49.05 -26.3 50.1 -25.25 54.5 -22.4 58.55 -17.2 54.5 -22.4 50.1 -25.25 49.05 -26.3 47.85 -26.95 L47.55 -26.7 Q49.5 -31.8 48.45 -38.0 47.6 -42.75 46.0 -45.4 38.7 -53.2 60.8 -54.0" fill="#ffe1c4" fill-rule="evenodd" stroke="none"/>
    <path d="M32.5 -21.35 L33.7 -20.9 32.8 -21.0 32.5 -21.35" fill="#e5e5e5" fill-rule="evenodd" stroke="none"/>
    <path d="M32.8 -21.0 L32.75 -20.9 32.65 -21.0 32.8 -21.0 M38.65 -14.35 L40.25 -12.85 40.25 -12.8 39.05 -13.9 38.65 -14.35" fill="#336699" fill-rule="evenodd" stroke="none"/>
    <path d="M40.4 -48.3 Q39.3 -47.35 39.8 -46.3 L41.9 -42.9 Q43.45 -40.55 42.65 -36.5 43.45 -40.55 41.9 -42.9 L39.8 -46.3 Q39.3 -47.35 40.4 -48.3 41.95 -49.25 44.05 -47.65 45.1 -46.8 46.0 -45.4 47.6 -42.75 48.45 -38.0 49.5 -31.8 47.55 -26.7 42.0 -20.05 33.7 -20.9 L32.5 -21.35 Q30.85 -22.0 29.55 -23.35 28.35 -24.6 27.95 -25.75 L26.55 -29.8 Q25.95 -31.9 25.95 -34.5 25.95 -35.75 26.7 -37.0 27.45 -38.25 28.2 -38.25 30.0 -38.25 31.3 -35.2 32.35 -32.75 32.7 -29.75 L32.95 -29.75 34.45 -32.25 Q35.35 -33.8 35.95 -36.25 35.65 -39.5 33.15 -42.25 30.7 -44.85 30.7 -46.1 30.7 -47.5 31.7 -47.95 L34.75 -47.7 Q34.8 -48.85 35.5 -49.4 36.25 -50.1 37.35 -50.0 38.4 -49.9 39.3 -49.3 L40.4 -48.3 M39.7 -37.5 Q39.6 -41.5 37.15 -43.9 34.7 -46.25 34.7 -47.35 L34.75 -47.7 34.7 -47.35 Q34.7 -46.25 37.15 -43.9 39.6 -41.5 39.7 -37.5 M41.7 -30.35 L38.9 -28.3 Q36.95 -26.6 36.95 -23.85 L37.1 -23.15 36.95 -23.85 Q36.95 -26.6 38.9 -28.3 L41.7 -30.35" fill="#ffffff" fill-rule="evenodd" stroke="none"/>
    <path d="M60.8 -54.0 L62.35 -50.5 Q63.7 -46.6 64.2 -41.35 66.65 -21.25 65.15 -11.45 63.65 -1.7 54.4 -2.2 51.05 -3.0 47.3 -5.95 L46.15 0.5 M42.65 -36.5 Q43.45 -40.55 41.9 -42.9 L39.8 -46.3 Q39.3 -47.35 40.4 -48.3 L39.3 -49.3 Q38.4 -49.9 37.35 -50.0 36.25 -50.1 35.5 -49.4 34.8 -48.85 34.75 -47.7 L34.7 -47.35 Q34.7 -46.25 37.15 -43.9 39.6 -41.5 39.7 -37.5 M34.75 -47.7 L31.7 -47.95 Q30.7 -47.5 30.7 -46.1 30.7 -44.85 33.15 -42.25 35.65 -39.5 35.95 -36.25 35.35 -33.8 34.45 -32.25 L32.95 -29.75 32.7 -29.75 Q32.35 -32.75 31.3 -35.2 30.0 -38.25 28.2 -38.25 27.45 -38.25 26.7 -37.0 25.95 -35.75 25.95 -34.5 25.95 -31.9 26.55 -29.8 L27.95 -25.75 Q28.35 -24.6 29.55 -23.35 30.85 -22.0 32.5 -21.35 L33.7 -20.9 32.8 -21.0 32.5 -21.35 M37.1 -23.15 L36.95 -23.85 Q36.95 -26.6 38.9 -28.3 L41.7 -30.35 M32.8 -21.0 L32.65 -21.0 32.75 -20.9 Q34.05 -19.25 35.5 -17.95 L38.35 -14.65 38.65 -14.35 40.25 -12.85 40.25 -12.8 Q42.85 -9.5 45.4 -7.3 L47.3 -5.95 M40.25 -12.8 L39.05 -13.9 38.65 -14.35 M58.55 -17.2 Q54.5 -22.4 50.1 -25.25 49.05 -26.3 47.85 -26.95 L47.55 -26.7 Q49.5 -31.8 48.45 -38.0 47.6 -42.75 46.0 -45.4 45.1 -46.8 44.05 -47.65 41.95 -49.25 40.4 -48.3" fill="none" stroke="#000000" stroke-linecap="round" stroke-linejoin="round" stroke-width="1.0"/>
  </g>
</svg>
