<?xml version="1.0" encoding="UTF-8" standalone="no"?>
<svg xmlns:xlink="http://www.w3.org/1999/xlink" height="95.8px" width="100.3px" xmlns="http://www.w3.org/2000/svg">
  <g transform="matrix(1.0, 0.0, 0.0, 1.0, 29.5, 76.85)">
    <path d="M68.8 -10.95 Q67.3 -1.2 58.05 -1.7 54.7 -2.5 50.95 -5.45 L49.8 1.0 Q48.05 9.5 45.65 18.45 22.4 10.05 -1.1 11.75 1.65 -4.0 7.65 -20.55 11.85 -33.4 20.3 -56.7 22.15 -57.05 23.6 -56.65 L25.95 -56.25 Q26.35 -56.9 26.65 -57.45 L27.05 -58.25 28.0 -60.5 28.5 -62.25 Q29.5 -69.75 30.75 -73.05 32.0 -76.35 37.85 -75.9 43.65 -75.45 43.9 -69.65 44.0 -66.15 43.7 -61.5 L43.8 -60.15 43.85 -59.25 Q44.0 -58.2 44.0 -57.55 L45.0 -56.85 45.0 -56.85 Q53.05 -61.25 59.9 -58.55 62.45 -57.7 65.1 -52.25 49.7 -44.8 35.1 -43.85 34.35 -44.95 34.35 -45.6 34.35 -47.0 35.35 -47.45 L38.4 -47.2 Q38.45 -48.35 39.15 -48.9 39.9 -49.6 41.0 -49.5 42.05 -49.4 42.95 -48.8 L44.05 -47.8 Q45.6 -48.75 47.7 -47.15 M-7.75 -48.35 L-7.2 -48.8 -7.1 -48.5 -7.75 -48.35 M50.95 -5.45 Q50.0 -6.0 49.05 -6.8 46.5 -9.0 43.9 -12.3 L43.9 -12.35 43.5 -12.7 42.3 -13.85 41.9 -14.25 42.3 -13.85 43.5 -12.7 43.9 -12.35 43.9 -12.3 Q46.5 -9.0 49.05 -6.8 50.0 -6.0 50.95 -5.45 50.95 -5.45 50.95 -5.45 50.95 -5.45 50.95 -5.45 50.95 -5.45 50.95 -5.45 43.95 -20.35 43.25 -20.75 42.85 -17.4 41.9 -14.35 40.2 -8.95 36.75 -4.6 31.4 2.4 24.8 2.4 18.2 2.4 14.2 -4.6 10.35 -11.55 11.4 -21.4 12.45 -31.3 17.9 -38.3 23.35 -45.2 29.95 -45.2 32.75 -45.2 35.1 -43.95 M62.2 -16.7 Q58.15 -21.9 53.75 -24.75 58.15 -21.9 62.2 -16.7" fill="#336699" fill-rule="evenodd" stroke="none"/>
    <path d="M68.8 -10.95 Q70.3 -20.75 67.85 -40.85 67.2 -47.75 65.1 -52.25 67.2 -47.75 67.85 -40.85 70.3 -20.75 68.8 -10.95 M7.65 -20.55 Q-2.4 -8.0 -8.7 -11.85 -16.6 -16.65 -19.95 -40.35 L-19.75 -40.45 Q-13.45 -42.55 -7.75 -48.35 L-7.1 -48.5 -3.25 -33.3 Q9.0 -54.95 18.45 -56.7 19.4 -56.9 20.3 -56.7 11.85 -33.4 7.65 -20.55 M50.95 -5.45 Q47.75 -22.05 51.2 -26.2 53.15 -31.3 52.1 -37.5 50.8 -44.75 47.7 -47.15 M53.75 -24.75 Q52.7 -25.8 51.5 -26.45 L51.2 -26.2 51.5 -26.45 Q52.7 -25.8 53.75 -24.75 M43.4 -28.4 Q43.7 -25.05 43.3 -21.3 L50.95 -5.45 Q50.95 -5.45 50.95 -5.45 50.95 -5.45 50.95 -5.45 50.95 -5.45 50.95 -5.45 43.95 -20.35 43.25 -20.75 42.85 -17.4 41.9 -14.35 40.2 -8.95 36.75 -4.6 31.4 2.4 24.8 2.4 18.2 2.4 14.2 -4.6 10.35 -11.55 11.4 -21.4 12.45 -31.3 17.9 -38.3 23.35 -45.2 29.95 -45.2 32.75 -45.2 35.1 -43.95 38.2 -42.25 40.45 -38.3 42.85 -33.95 43.4 -28.5 M-1.95 -27.0 L-3.25 -33.3 -1.95 -27.0" fill="#ffe1c4" fill-rule="evenodd" stroke="none"/>
    <path d="M43.35 -37.0 Q43.25 -41.0 40.8 -43.4 38.35 -45.75 38.35 -46.85 L38.4 -47.2 38.35 -46.85 Q38.35 -45.75 40.8 -43.4 43.25 -41.0 43.35 -37.0 M35.1 -43.85 Q34.35 -44.95 34.35 -45.6 34.35 -47.0 35.35 -47.45 L38.4 -47.2 Q38.45 -48.35 39.15 -48.9 39.9 -49.6 41.0 -49.5 42.05 -49.4 42.95 -48.8 L44.05 -47.8 Q42.95 -46.85 43.45 -45.8 43.95 -44.75 45.55 -42.4 47.1 -40.05 46.3 -36.0 M45.35 -29.85 L43.4 -28.4 45.35 -29.85 M50.95 -5.45 L43.3 -21.3 Q43.7 -25.05 43.4 -28.4 M43.4 -28.5 Q42.85 -33.95 40.45 -38.3 38.2 -42.25 35.1 -43.95" fill="#e5e5e5" fill-rule="evenodd" stroke="none"/>
    <path d="M-19.75 -40.45 Q-25.35 -43.35 -24.6 -48.4 -23.75 -53.7 -23.0 -54.65 -23.45 -56.05 -26.55 -58.35 L-26.75 -58.5 Q-28.45 -59.15 -28.95 -61.5 L-29.0 -62.8 -28.6 -63.7 -27.8 -64.95 -27.65 -65.0 Q-28.2 -66.05 -27.9 -67.45 L-27.75 -68.95 Q-27.3 -69.65 -26.0 -70.15 L-25.95 -70.5 Q-25.7 -71.85 -24.4 -72.15 L-21.9 -71.95 Q-14.55 -70.65 -10.85 -65.15 -6.9 -59.2 -7.75 -48.35 -13.45 -42.55 -19.75 -40.45 M-18.1 -44.7 Q-18.85 -45.25 -19.3 -47.55 -19.95 -50.15 -19.6 -52.15 L-18.7 -54.6 -17.2 -57.2 -17.85 -59.65 Q-18.2 -61.6 -18.0 -62.7 L-17.65 -63.8 Q-19.15 -65.4 -23.45 -66.95 -26.15 -67.85 -26.0 -70.15 -26.15 -67.85 -23.45 -66.95 -19.15 -65.4 -17.65 -63.8 L-17.05 -64.75 Q-16.45 -65.4 -15.1 -65.2 -13.25 -64.85 -11.85 -60.65 -10.45 -56.55 -10.45 -52.65 L-10.4 -50.65 -10.45 -52.65 Q-10.45 -56.55 -11.85 -60.65 -13.25 -64.85 -15.1 -65.2 -16.45 -65.4 -17.05 -64.75 L-17.65 -63.8 -18.0 -62.7 Q-18.2 -61.6 -17.85 -59.65 L-17.2 -57.2 -18.7 -54.6 -19.6 -52.15 Q-19.95 -50.15 -19.3 -47.55 -18.85 -45.25 -18.1 -44.7 M-20.35 -59.25 Q-21.2 -61.15 -25.15 -62.9 -27.0 -63.8 -27.65 -65.0 -27.0 -63.8 -25.15 -62.9 -21.2 -61.15 -20.35 -59.25" fill="#ffffff" fill-rule="evenodd" stroke="none"/>
    <path d="M45.0 -56.85 Q53.05 -61.25 59.9 -58.55 62.45 -57.7 65.1 -52.25 67.2 -47.75 67.85 -40.85 70.3 -20.75 68.8 -10.95 67.3 -1.2 58.05 -1.7 54.7 -2.5 50.95 -5.45 L49.8 1.0 Q48.05 9.5 45.65 18.45 22.4 10.05 -1.1 11.75 1.65 -4.0 7.65 -20.55 -2.4 -8.0 -8.7 -11.85 -16.6 -16.65 -19.95 -40.35 L-19.75 -40.45 Q-25.35 -43.35 -24.6 -48.4 -23.75 -53.7 -23.0 -54.65 -23.45 -56.05 -26.55 -58.35 L-26.75 -58.5 Q-28.45 -59.15 -28.95 -61.5 L-29.0 -62.8 -28.6 -63.7 -27.8 -64.95 -27.65 -65.0 Q-28.2 -66.05 -27.9 -67.45 L-27.75 -68.95 Q-27.3 -69.65 -26.0 -70.15 L-25.95 -70.5 Q-25.7 -71.85 -24.4 -72.15 L-21.9 -71.95 Q-14.55 -70.65 -10.85 -65.15 -6.9 -59.2 -7.75 -48.35 L-7.2 -48.8 -7.1 -48.5 -3.25 -33.3 Q9.0 -54.95 18.45 -56.7 19.4 -56.9 20.3 -56.7 22.15 -57.05 23.6 -56.65 L25.95 -56.25 Q26.35 -56.9 26.65 -57.45 L27.05 -58.25 28.0 -60.5 28.5 -62.25 Q29.5 -69.75 30.75 -73.05 32.0 -76.35 37.85 -75.9 43.65 -75.45 43.9 -69.65 44.0 -66.15 43.7 -61.5 L43.8 -60.15 43.85 -59.25 Q44.0 -58.2 44.0 -57.55 L45.0 -56.85 Q53.05 -61.25 59.9 -58.55 62.45 -57.7 65.1 -52.25 49.7 -44.8 35.1 -43.85 34.35 -44.95 34.35 -45.6 34.35 -47.0 35.35 -47.45 L38.4 -47.2 38.35 -46.85 Q38.35 -45.75 40.8 -43.4 43.25 -41.0 43.35 -37.0 M44.05 -47.8 L42.95 -48.8 Q42.05 -49.4 41.0 -49.5 39.9 -49.6 39.15 -48.9 38.45 -48.35 38.4 -47.2 M43.4 -28.4 L45.35 -29.85 M20.4 -56.9 L20.3 -56.7 Q11.85 -33.4 7.65 -20.55 M50.95 -5.45 Q47.75 -22.05 51.2 -26.2 53.15 -31.3 52.1 -37.5 50.8 -44.75 47.7 -47.15 45.6 -48.75 44.05 -47.8 42.95 -46.85 43.45 -45.8 43.95 -44.75 45.55 -42.4 47.1 -40.05 46.3 -36.0 M51.2 -26.2 L51.5 -26.45 Q52.7 -25.8 53.75 -24.75 58.15 -21.9 62.2 -16.7 M41.9 -14.25 L42.3 -13.85 43.5 -12.7 43.9 -12.35 43.9 -12.3 Q46.5 -9.0 49.05 -6.8 50.0 -6.0 50.95 -5.45 M-26.0 -70.15 Q-26.15 -67.85 -23.45 -66.95 -19.15 -65.4 -17.65 -63.8 L-17.05 -64.75 Q-16.45 -65.4 -15.1 -65.2 -13.25 -64.85 -11.85 -60.65 -10.45 -56.55 -10.45 -52.65 L-10.4 -50.65 M-27.65 -65.0 Q-27.0 -63.8 -25.15 -62.9 -21.2 -61.15 -20.35 -59.25 M-17.65 -63.8 L-18.0 -62.7 Q-18.2 -61.6 -17.85 -59.65 L-17.2 -57.2 -18.7 -54.6 -19.6 -52.15 Q-19.95 -50.15 -19.3 -47.55 -18.85 -45.25 -18.1 -44.7 M-3.25 -33.3 L-1.95 -27.0" fill="none" stroke="#000000" stroke-linecap="round" stroke-linejoin="round" stroke-width="1.0"/>
    <path d="M43.4 -28.4 Q43.7 -25.05 43.3 -21.3 L50.95 -5.45 Q50.95 -5.45 50.95 -5.45 50.95 -5.45 50.95 -5.45 50.95 -5.45 50.95 -5.45 43.95 -20.35 43.25 -20.75 42.85 -17.4 41.9 -14.35 40.2 -8.95 36.75 -4.6 31.4 2.4 24.8 2.4 18.2 2.4 14.2 -4.6 10.35 -11.55 11.4 -21.4 12.45 -31.3 17.9 -38.3 23.35 -45.2 29.95 -45.2 32.75 -45.2 35.1 -43.95 38.2 -42.25 40.45 -38.3 42.85 -33.95 43.4 -28.5" fill="none" stroke="#336699" stroke-linecap="round" stroke-linejoin="round" stroke-width="1.0"/>
    <path d="M36.15 -20.85 L37.35 -20.4 36.45 -20.5 36.15 -20.85" fill="#e5e5e5" fill-rule="evenodd" stroke="none"/>
    <path d="M36.45 -20.5 L37.35 -20.4 Q45.65 -19.55 51.2 -26.2 L51.5 -26.45 Q52.7 -25.8 53.75 -24.75 58.15 -21.9 62.2 -16.7 58.15 -21.9 53.75 -24.75 52.7 -25.8 51.5 -26.45 L51.2 -26.2 Q53.15 -31.3 52.1 -37.5 51.35 -41.8 49.95 -44.4 42.0 -55.4 65.1 -52.25 67.2 -47.75 67.85 -40.85 70.3 -20.75 68.8 -10.95 67.3 -1.2 58.05 -1.7 54.7 -2.5 50.95 -5.45 50.0 -6.0 49.05 -6.8 46.5 -9.0 43.9 -12.3 L43.9 -12.35 43.5 -12.7 42.3 -13.85 39.15 -17.45 Q37.7 -18.75 36.4 -20.4 L36.45 -20.5" fill="#ffe1c4" fill-rule="evenodd" stroke="none"/>
    <path d="M36.45 -20.5 L36.4 -20.4 36.3 -20.5 36.45 -20.5" fill="#336699" fill-rule="evenodd" stroke="none"/>
    <path d="M38.4 -47.2 Q38.45 -48.35 39.15 -48.9 39.9 -49.6 41.0 -49.5 42.05 -49.4 42.95 -48.8 L44.05 -47.8 Q45.6 -48.75 47.7 -47.15 48.95 -46.15 49.95 -44.4 51.35 -41.8 52.1 -37.5 53.15 -31.3 51.2 -26.2 45.65 -19.55 37.35 -20.4 L36.15 -20.85 Q34.5 -21.5 33.2 -22.85 32.0 -24.1 31.6 -25.25 L30.2 -29.3 Q29.6 -31.4 29.6 -34.0 29.6 -35.25 30.35 -36.5 31.1 -37.75 31.85 -37.75 33.65 -37.75 34.95 -34.7 36.0 -32.25 36.35 -29.25 L36.6 -29.25 38.1 -31.75 Q39.0 -33.3 39.6 -35.75 39.3 -39.0 36.8 -41.75 34.35 -44.35 34.35 -45.6 34.35 -47.0 35.35 -47.45 L38.4 -47.2 38.35 -46.85 Q38.35 -45.75 40.8 -43.4 43.25 -41.0 43.35 -37.0 43.25 -41.0 40.8 -43.4 38.35 -45.75 38.35 -46.85 L38.4 -47.2 M45.35 -29.85 L42.55 -27.8 Q40.6 -26.1 40.6 -23.35 L40.75 -22.65 40.6 -23.35 Q40.6 -26.1 42.55 -27.8 L45.35 -29.85 M46.3 -36.0 Q47.1 -40.05 45.55 -42.4 43.95 -44.75 43.45 -45.8 42.95 -46.85 44.05 -47.8 42.95 -46.85 43.45 -45.8 43.95 -44.75 45.55 -42.4 47.1 -40.05 46.3 -36.0" fill="#ffffff" fill-rule="evenodd" stroke="none"/>
    <path d="M44.05 -47.8 L42.95 -48.8 Q42.05 -49.4 41.0 -49.5 39.9 -49.6 39.15 -48.9 38.45 -48.35 38.4 -47.2 L38.35 -46.85 Q38.35 -45.75 40.8 -43.4 43.25 -41.0 43.35 -37.0 M38.4 -47.2 L35.35 -47.45 Q34.35 -47.0 34.35 -45.6 34.35 -44.35 36.8 -41.75 39.3 -39.0 39.6 -35.75 39.0 -33.3 38.1 -31.75 L36.6 -29.25 36.35 -29.25 Q36.0 -32.25 34.95 -34.7 33.65 -37.75 31.85 -37.75 31.1 -37.75 30.35 -36.5 29.6 -35.25 29.6 -34.0 29.6 -31.4 30.2 -29.3 L31.6 -25.25 Q32.0 -24.1 33.2 -22.85 34.5 -21.5 36.15 -20.85 L37.35 -20.4 36.45 -20.5 36.15 -20.85 M36.45 -20.5 L36.3 -20.5 36.4 -20.4 Q37.7 -18.75 39.15 -17.45 L42.3 -13.85 43.5 -12.7 43.9 -12.35 43.9 -12.3 Q46.5 -9.0 49.05 -6.8 50.0 -6.0 50.95 -5.45 54.7 -2.5 58.05 -1.7 67.3 -1.2 68.8 -10.95 70.3 -20.75 67.85 -40.85 67.2 -47.75 65.1 -52.25 M40.75 -22.65 L40.6 -23.35 Q40.6 -26.1 42.55 -27.8 L45.35 -29.85 M62.2 -16.7 Q58.15 -21.9 53.75 -24.75 52.7 -25.8 51.5 -26.45 L51.2 -26.2 Q53.15 -31.3 52.1 -37.5 51.35 -41.8 49.95 -44.4 48.95 -46.15 47.7 -47.15 45.6 -48.75 44.05 -47.8 42.95 -46.85 43.45 -45.8 43.95 -44.75 45.55 -42.4 47.1 -40.05 46.3 -36.0 M50.95 -5.45 L49.8 1.0" fill="none" stroke="#000000" stroke-linecap="round" stroke-linejoin="round" stroke-width="1.0"/>
  </g>
</svg>
